<svg xmlns="http://www.w3.org/2000/svg" width="445.357" height="445.356" viewBox="0 0 445.357 445.356">
  <g id="그룹_162" data-name="그룹 162" transform="translate(19407.254 -7761.532)">
    <g id="그룹_159" data-name="그룹 159">
      <g id="그룹_156" data-name="그룹 156">
        <g id="icn-instagram" transform="translate(-19407.254 7761.532)" opacity="0.7">
          <path id="패스_12" data-name="패스 12" d="M445.357,222.678c0,122.98-99.7,222.678-222.678,222.678S0,345.658,0,222.678,99.7,0,222.678,0,445.357,99.7,445.357,222.678" fill="#6b7684" fill-rule="evenodd"/>
        </g>
        <g id="패스_15" data-name="패스 15" transform="matrix(0.995, 0.105, -0.105, 0.995, -19296.072, 7850.823)" fill="none" stroke-linecap="round" stroke-linejoin="round">
          <path d="M121.006,0A121.006,121.006,0,0,1,242.012,121.006c0,23.324-6.565,45.78-6.565,45.78s16.422,41.511,13.947,57.487c-.207,5.764-25.81,3.989-48.749-7.957-34.7,23.532-43.616,25.7-79.64,25.7A121.006,121.006,0,1,1,121.006,0Z" stroke="none"/>
          <path d="M 121.0062103271484 24.99998474121094 C 68.06820678710938 24.99998474121094 24.99998474121094 68.06809997558594 24.99998474121094 121.0060424804688 C 24.99998474121094 173.9439849853516 68.06820678710938 217.0121002197266 121.0062103271484 217.0121002197266 C 152.1929931640625 217.0121002197266 155.9561004638672 216.4171600341797 186.6132202148438 195.6250457763672 C 194.2192687988281 190.4664916992188 204.0424346923828 189.8970947265625 212.193603515625 194.1422729492188 C 214.6849670410156 195.4397888183594 217.1943511962891 196.5630035400391 219.6512298583984 197.5263214111328 C 217.5463714599609 190.5364685058594 214.9486083984375 182.9446411132812 212.1970977783203 175.9732055664062 C 210.1699829101562 170.8370361328125 209.9096069335938 165.1198120117188 211.4394378662109 159.8142700195312 C 211.4951477050781 159.6209869384766 217.0124359130859 140.2639770507812 217.0124359130859 121.0060424804688 C 217.0124359130859 68.06809997558594 173.9442138671875 24.99998474121094 121.0062103271484 24.99998474121094 M 121.0062103271484 -1.52587890625e-05 C 187.8360900878906 -1.52587890625e-05 242.0124359130859 54.17620849609375 242.0124359130859 121.0060424804688 C 242.0124359130859 144.32958984375 235.4477081298828 166.7857055664062 235.4477081298828 166.7857055664062 C 235.4477081298828 166.7857055664062 251.8701019287109 208.2970428466797 249.3945465087891 224.272705078125 C 249.1877593994141 230.0369262695312 223.5844879150391 228.2619934082031 200.6457061767578 216.3153686523438 C 165.9489898681641 239.8472137451172 157.0293731689453 242.0121002197266 121.0062103271484 242.0121002197266 C 54.17626953125 242.0121002197266 -1.52587890625e-05 187.8358764648438 -1.52587890625e-05 121.0060424804688 C -1.52587890625e-05 54.17626953125 54.17631530761719 -1.52587890625e-05 121.0062103271484 -1.52587890625e-05 Z" stroke="none" fill="#fff"/>
        </g>
        <g id="타원_23" data-name="타원 23" transform="translate(-19233.861 7945.146)" fill="#fff" stroke="#fff" stroke-width="2">
          <ellipse cx="13.115" cy="26.231" rx="13.115" ry="26.231" stroke="none"/>
          <ellipse cx="13.115" cy="26.231" rx="12.115" ry="25.231" fill="none"/>
        </g>
        <g id="타원_24" data-name="타원 24" transform="translate(-19172.656 7945.146)" fill="#fff" stroke="#fff" stroke-width="2">
          <ellipse cx="13.115" cy="26.231" rx="13.115" ry="26.231" stroke="none"/>
          <ellipse cx="13.115" cy="26.231" rx="12.115" ry="25.231" fill="none"/>
        </g>
      </g>
    </g>
  </g>
</svg>
