<svg id="그룹_110" data-name="그룹 110" xmlns="http://www.w3.org/2000/svg" width="50" height="50" viewBox="0 0 50.936 50.936">
  <g id="icn-instagram" opacity="0.7">
    <path id="패스_12" data-name="패스 12" d="M50.936,25.468A25.468,25.468,0,1,1,25.468,0,25.468,25.468,0,0,1,50.936,25.468" fill="#6b7684" fill-rule="evenodd"/>
  </g>
  <g id="패스_15" data-name="패스 15" transform="matrix(0.995, 0.105, -0.105, 0.995, 12.716, 10.212)" fill="none" stroke-linecap="round" stroke-linejoin="round">
    <path d="M13.84,0a13.84,13.84,0,0,1,13.84,13.84,21.271,21.271,0,0,1-.751,5.236s1.878,4.748,1.6,6.575c-.024.659-2.952.456-5.575-.91-3.968,2.691-4.948,2.708-9,3.166a10.318,10.318,0,0,1-3.305-.44,12.1,12.1,0,0,1-1.806-.551A14.133,14.133,0,0,1,0,13.84,13.84,13.84,0,0,1,13.84,0Z" stroke="none"/>
    <path d="M 13.83953189849854 1.999998092651367 C 10.67708206176758 1.999998092651367 7.703910827636719 3.231527328491211 5.467721939086914 5.467718124389648 C 3.231531143188477 7.703907012939453 2.000001907348633 10.67707824707031 2.000001907348633 13.83953762054443 C 2.000001907348633 17.22719764709473 3.513771057128906 20.59992790222168 6.052042007446289 22.8640079498291 C 7.066511154174805 23.77219772338867 8.319421768188477 24.5521068572998 9.579980850219727 25.06005859375 C 9.583061218261719 25.06129837036133 9.586141586303711 25.06254768371582 9.589212417602539 25.06380844116211 C 10.15472221374512 25.29495811462402 10.73341178894043 25.4328670501709 11.07916259765625 25.51525688171387 L 11.10213088989258 25.52073669433594 C 11.11061096191406 25.52275848388672 11.11907196044922 25.52483749389648 11.12752151489258 25.52696800231934 C 12.06731224060059 25.76407814025879 12.83058166503906 25.92198753356934 13.50098133087158 25.92198753356934 C 13.5894947052002 25.92198753356934 13.67799854278564 25.91924667358398 13.76459693908691 25.91383361816406 L 14.18851184844971 25.86625671386719 C 17.69364166259766 25.47399711608887 18.42307281494141 25.39236831665039 21.82534217834473 23.08489799499512 C 22.4338321685791 22.67221832275391 23.21967124938965 22.62666702270508 23.87177276611328 22.96627807617188 C 24.72346115112305 23.40983963012695 25.61215591430664 23.70440673828125 26.35338401794434 23.86503219604492 C 26.25992965698242 23.4501953125 26.12387847900391 22.93069648742676 25.92647171020508 22.28550720214844 C 25.52093124389648 20.96005821228027 25.07278060913086 19.82195663452148 25.06851196289062 19.81112670898438 C 24.90487098693848 19.39750671386719 24.88310241699219 18.94354629516602 25.00791168212891 18.5166072845459 C 25.01462173461914 18.49342727661133 25.6790714263916 16.1719970703125 25.6790714263916 13.83953762054443 C 25.6790714263916 10.67707824707031 24.44754219055176 7.703907012939453 22.21135139465332 5.467718124389648 C 19.97516250610352 3.231527328491211 17.00199127197266 1.999998092651367 13.83953189849854 1.999998092651367 M 13.83953189849854 -1.9073486328125e-06 C 21.48290252685547 -1.9073486328125e-06 27.6790714263916 6.1961669921875 27.6790714263916 13.83953762054443 C 27.6790714263916 16.5070686340332 26.92826080322266 19.07538795471191 26.92826080322266 19.07538795471191 C 26.92826080322266 19.07538795471191 28.8065013885498 23.82306671142578 28.52337074279785 25.65020751953125 C 28.49972152709961 26.30946731567383 25.57146072387695 26.10646820068359 22.94794082641602 24.74012756347656 C 18.97966194152832 27.43146705627441 17.99999237060547 27.44853782653809 13.94358158111572 27.90630722045898 C 12.93933010101318 27.97815704345703 11.95418357849121 27.79820823669434 10.63826179504395 27.4661979675293 C 10.25522232055664 27.37486839294434 9.554971694946289 27.2104377746582 8.832481384277344 26.91511726379395 C 7.556682586669922 26.40102767944336 6.063892364501953 25.55898666381836 4.71803092956543 24.35410690307617 C 1.95100212097168 21.88598823547363 1.9073486328125e-06 18.06631851196289 1.9073486328125e-06 13.83953762054443 C 1.9073486328125e-06 6.1961669921875 6.196170806884766 -1.9073486328125e-06 13.83953189849854 -1.9073486328125e-06 Z" stroke="none" fill="#fff"/>
  </g>
  <g id="타원_23" data-name="타원 23" transform="translate(19.831 21)" fill="none" stroke="#fff" stroke-width="1.5">
    <ellipse cx="1.5" cy="3" rx="1.5" ry="3" stroke="none"/>
    <ellipse cx="1.5" cy="3" rx="0.75" ry="2.25" fill="none"/>
  </g>
  <g id="타원_24" data-name="타원 24" transform="translate(26.831 21)" fill="none" stroke="#fff" stroke-width="1.5">
    <ellipse cx="1.5" cy="3" rx="1.5" ry="3" stroke="none"/>
    <ellipse cx="1.5" cy="3" rx="0.75" ry="2.25" fill="none"/>
  </g>
</svg>
