<svg xmlns="http://www.w3.org/2000/svg" width="50" height="50" viewBox="0 0 445.357 445.356">
  <g id="그룹_160" data-name="그룹 160" transform="translate(20545.379 -7761.532)">
    <g id="그룹_154" data-name="그룹 154">
      <g id="icn-facebook" transform="translate(-20545.379 7761.532)" opacity="0.7">
        <path id="패스_10" data-name="패스 10" d="M445.357,222.678c0,122.98-99.7,222.678-222.678,222.678S0,345.658,0,222.678,99.7,0,222.678,0,445.357,99.7,445.357,222.678" fill="#6b7684" fill-rule="evenodd"/>
        <path id="패스_11" data-name="패스 11" d="M129.486,139.922l6.47-42.123H95.539V70.459c0-11.517,5.641-22.763,23.752-22.763h18.371V11.845A224.161,224.161,0,0,0,105.04,9C71.762,9,49.989,29.165,49.989,65.7V97.8H13v42.123H49.989V243.5h45.55V139.922h33.946Z" transform="translate(147.823 102.339)" fill="#fff" fill-rule="evenodd"/>
      </g>
    </g>
  </g>
</svg>
