<svg xmlns="http://www.w3.org/2000/svg" width="50" height="50" viewBox="0 0 445.357 445.356">
  <g id="그룹_161" data-name="그룹 161" transform="translate(19976.316 -7761.532)">
    <g id="icn-instagram" transform="translate(-19976.316 7761.532)" opacity="0.7">
      <path id="패스_12" data-name="패스 12" d="M445.357,222.678c0,122.98-99.7,222.678-222.678,222.678S0,345.658,0,222.678,99.7,0,222.678,0,445.357,99.7,445.357,222.678" fill="#6b7684" fill-rule="evenodd"/>
      <path id="패스_13" data-name="패스 13" d="M123.3,8.74c-31.113,0-35.01.124-47.233.693-12.185.557-20.524,2.487-27.81,5.32a58.576,58.576,0,0,0-33.5,33.5c-2.833,7.3-4.763,15.625-5.32,27.81C8.876,88.286,8.74,92.182,8.74,123.3s.124,35.01.693,47.232c.557,12.2,2.487,20.524,5.32,27.81a58.576,58.576,0,0,0,33.5,33.5c7.3,2.833,15.625,4.763,27.81,5.32,12.223.557,16.119.693,47.233.693s35.01-.124,47.233-.693c12.185-.557,20.524-2.487,27.81-5.32a58.576,58.576,0,0,0,33.5-33.5c2.833-7.3,4.763-15.612,5.32-27.81.557-12.223.693-16.119.693-47.232s-.124-35.01-.693-47.232c-.557-12.185-2.487-20.523-5.32-27.81a58.576,58.576,0,0,0-33.5-33.5c-7.3-2.833-15.625-4.763-27.81-5.32-12.223-.569-16.119-.693-47.233-.693m0,20.647c30.581,0,34.206.124,46.292.668,11.171.495,17.233,2.375,21.278,3.934a35.6,35.6,0,0,1,13.163,8.573A35.542,35.542,0,0,1,212.6,55.737c1.559,4.033,3.427,10.095,3.934,21.278.557,12.074.668,15.7.668,46.28s-.111,34.206-.668,46.292c-.495,11.171-2.375,17.233-3.934,21.278A37.991,37.991,0,0,1,190.854,212.6c-4.033,1.559-10.095,3.427-21.278,3.934-12.062.557-15.686.668-46.28.668s-34.218-.111-46.292-.668c-11.171-.495-17.233-2.375-21.278-3.934a35.75,35.75,0,0,1-13.163-8.573,35.542,35.542,0,0,1-8.573-13.175c-1.559-4.033-3.427-10.095-3.934-21.278-.557-12.074-.668-15.686-.668-46.28S29.5,89.09,30.055,77c.495-11.171,2.375-17.233,3.934-21.278a35.75,35.75,0,0,1,8.573-13.163,35.543,35.543,0,0,1,13.175-8.573c4.033-1.559,10.095-3.427,21.278-3.934,12.074-.557,15.7-.668,46.28-.668" transform="translate(99.383 99.383)" fill="#fff" fill-rule="evenodd"/>
      <path id="패스_14" data-name="패스 14" d="M72.069,125.029A38.189,38.189,0,1,1,110.259,86.84a38.188,38.188,0,0,1-38.189,38.189m0-97.013A58.824,58.824,0,1,0,130.893,86.84,58.826,58.826,0,0,0,72.069,28.016m74.894-2.326a13.744,13.744,0,1,1-13.757-13.744A13.738,13.738,0,0,1,146.963,25.69" transform="translate(150.609 135.838)" fill="#fff" fill-rule="evenodd"/>
    </g>
  </g>
</svg>
